name precision_landing05_filtered_grf.mot
datacolumns 37
datarows 5
range 0.002500 0.004500
endheader
time	1_ground_force_vx	1_ground_force_vy	1_ground_force_vz	1_ground_force_px	1_ground_force_py	1_ground_force_pz	1_ground_torque_x	1_ground_torque_y	1_ground_torque_z	2_ground_force_vx	2_ground_force_vy	2_ground_force_vz	2_ground_force_px	2_ground_force_py	2_ground_force_pz	2_ground_torque_x	2_ground_torque_y	2_ground_torque_z	3_ground_force_vx	3_ground_force_vy	3_ground_force_vz	3_ground_force_px	3_ground_force_py	3_ground_force_pz	3_ground_torque_x	3_ground_torque_y	3_ground_torque_z	4_ground_force_vx	4_ground_force_vy	4_ground_force_vz	4_ground_force_px	4_ground_force_py	4_ground_force_pz	4_ground_torque_x	4_ground_torque_y	4_ground_torque_z
            0.002500	           -0.000000	            0.000000	            0.000000	            0.118404	            0.000000	            0.326900	            0.000000	            0.000000	           -0.000000	            0.000000	            0.000000	            0.000000	           -0.178590	            0.000000	            0.245785	            0.000000	           -0.000000	            0.000000	          -37.754340	          364.909249	          110.012893	            0.381181	            1.274507	            1.883859	            1.747454	          -16.889769	           -5.091930	           46.973259	          281.630967	           87.036591	           -0.351971	            1.267598	            1.872225	            2.023371	           12.131244	            3.749098
            0.003000	           -0.000000	            0.000000	            0.000000	            0.118404	            0.000000	            0.326900	            0.000000	            0.000000	           -0.000000	            0.000000	            0.000000	            0.000000	           -0.178590	            0.000000	            0.245785	            0.000000	           -0.000000	            0.000000	          -37.606596	          365.059814	          110.204461	            0.381181	            1.274507	            1.883859	            1.742924	          -16.919151	           -5.107563	           46.888720	          281.314631	           87.099986	           -0.351971	            1.267598	            1.872225	            2.022791	           12.135983	            3.757515
            0.003500	           -0.000000	            0.000000	            0.000000	            0.118404	            0.000000	            0.326900	            0.000000	            0.000000	           -0.000000	            0.000000	            0.000000	            0.000000	           -0.178590	            0.000000	            0.245785	            0.000000	           -0.000000	            0.000000	          -37.462652	          365.211988	          110.389988	            0.381182	            1.274511	            1.883865	            1.738475	          -16.947866	           -5.122709	           46.800544	          280.995060	           87.155753	           -0.351975	            1.267598	            1.872224	            2.021916	           12.139781	            3.765375
            0.004000	           -0.000000	            0.000000	            0.000000	            0.118404	            0.000000	            0.326900	            0.000000	            0.000000	           -0.000000	            0.000000	            0.000000	            0.000000	           -0.178590	            0.000000	            0.245785	            0.000000	           -0.000000	            0.000000	          -37.323358	          365.365673	          110.568864	            0.381183	            1.274514	            1.883870	            1.734139	          -16.975830	           -5.137314	           46.708808	          280.672749	           87.203602	           -0.351978	            1.267599	            1.872222	            2.020740	           12.142605	            3.772646
            0.004500	           -0.000000	           -0.000000	            0.000000	            0.118404	            0.000000	            0.326900	            0.000000	            0.000000	            0.000000	            0.000000	            0.000000	            0.000000	           -0.178590	            0.000000	            0.245785	            0.000000	           -0.000000	            0.000000	          -37.189514	          365.520772	          110.740525	            0.381184	            1.274518	            1.883876	            1.729948	          -17.002964	           -5.151327	           46.613610	          280.348165	           87.243294	           -0.351981	            1.267599	            1.872220	            2.019260	           12.144431	            3.779301
